<svg xmlns="http://www.w3.org/2000/svg" viewBox="0 0 96 96" role="img" aria-labelledby="title desc">
  <title id="title">Health Tech Scout logo</title>
  <desc id="desc">A medical scout in a white coat with a magnifying glass and HTS badge.</desc>
  <rect width="96" height="96" rx="18" fill="#0f766e" />
  <circle cx="48" cy="30" r="14" fill="#f6d6c8" />
  <path d="M35 25c4-9 22-9 26 0-3-7-8-11-13-11s-10 4-13 11Z" fill="#17212b" opacity=".88" />
  <path d="M28 88V61c0-10 8-18 18-18h4c10 0 18 8 18 18v27H28Z" fill="#ffffff" />
  <path d="M35 88V60l13 16 13-16v28H35Z" fill="#e8f2ef" />
  <path d="M39 45l9 31 9-31" fill="none" stroke="#0b4f4a" stroke-width="3" stroke-linecap="round" stroke-linejoin="round" opacity=".72" />
  <path d="M33 63c5 3 11 3 16 0M47 63c5 3 11 3 16 0" fill="none" stroke="#274c77" stroke-width="3" stroke-linecap="round" opacity=".72" />
  <circle cx="33" cy="61" r="4" fill="#274c77" />
  <circle cx="63" cy="61" r="4" fill="#274c77" />
  <circle cx="67" cy="31" r="10" fill="none" stroke="#ffffff" stroke-width="5" />
  <path d="M74 38l10 10" fill="none" stroke="#ffffff" stroke-width="5" stroke-linecap="round" />
  <path d="M42 54h12" fill="none" stroke="#0f766e" stroke-width="3" stroke-linecap="round" />
  <path d="M48 48v12" fill="none" stroke="#0f766e" stroke-width="3" stroke-linecap="round" />
  <path d="M42 31c4 3 8 3 12 0" fill="none" stroke="#9a5b48" stroke-width="2" stroke-linecap="round" opacity=".75" />
</svg>
